<?xml version="1.0" encoding="UTF-8"?>
<!DOCTYPE svg PUBLIC "-//W3C//DTD SVG 1.1//EN" "http://www.w3.org/Graphics/SVG/1.1/DTD/svg11.dtd">
<!-- Creator: CorelDRAW 2020 (64-Bit) -->
<svg xmlns="http://www.w3.org/2000/svg" xml:space="preserve" width="87px" height="100px" version="1.1" style="shape-rendering:geometricPrecision; text-rendering:geometricPrecision; image-rendering:optimizeQuality; fill-rule:evenodd; clip-rule:evenodd"
viewBox="0 0 3.31 3.83"
 xmlns:xlink="http://www.w3.org/1999/xlink"
 xmlns:xodm="http://www.corel.com/coreldraw/odm/2003">
 <defs>
  <style type="text/css">
   <![CDATA[
    .fil0 {fill:url(#id0)}
    .fil2 {fill:url(#id1)}
    .fil1 {fill:url(#id2)}
   ]]>
  </style>
  <linearGradient id="id0" gradientUnits="userSpaceOnUse" x1="1.39" y1="1.77" x2="2.91" y2="0.67">
   <stop offset="0" style="stop-opacity:1; stop-color:#5985F7"/>
   <stop offset="1" style="stop-opacity:1; stop-color:#2C427C"/>
  </linearGradient>
  <linearGradient id="id1" gradientUnits="userSpaceOnUse" xlink:href="#id0" x1="1.92" y1="1.75" x2="2.11" y2="3.62">
  </linearGradient>
  <linearGradient id="id2" gradientUnits="userSpaceOnUse" xlink:href="#id0" x1="1.67" y1="2.22" x2="-0.05" y2="1.45">
  </linearGradient>
 </defs>
 <g id="Layer_x0020_1">
  <metadata id="CorelCorpID_0Corel-Layer"/>
  <path class="fil0" d="M3.31 0.96l0 0.71c0,0.11 -0.07,0.36 -0.3,0.52 -0.25,0.17 -0.51,0.17 -0.72,0.06 -0.19,-0.1 -0.32,-0.23 -0.36,-0.5 -0.07,-0.39 0.05,-0.58 -0.13,-0.96 -0.17,-0.38 -0.61,-0.52 -0.61,-0.52l0.47 -0.27c0.13,0.08 0.37,0.19 0.59,0.59 0.21,0.41 0.17,0.91 0.18,1.04 0.01,0.14 0.1,0.19 0.19,0.2 0.1,0 0.19,-0.08 0.2,-0.2l0 -0.62 -0.38 -0.56 0.87 0.51z"/>
  <path class="fil1" d="M0 0.96l0.62 -0.36c0.1,-0.06 0.35,-0.11 0.6,0.01 0.27,0.12 0.4,0.35 0.41,0.59 0.01,0.21 -0.04,0.39 -0.25,0.56 -0.3,0.25 -0.53,0.25 -0.77,0.59 -0.24,0.34 -0.14,0.79 -0.14,0.79l-0.47 -0.27c0,-0.15 -0.02,-0.42 0.22,-0.81 0.24,-0.39 0.7,-0.6 0.8,-0.67 0.12,-0.08 0.12,-0.19 0.08,-0.27 -0.05,-0.09 -0.16,-0.13 -0.27,-0.07l-0.54 0.31 -0.29 0.61 0 -1.01z"/>
  <path class="fil2" d="M1.66 3.83l-0.62 -0.36c-0.1,-0.06 -0.27,-0.25 -0.3,-0.52 -0.02,-0.3 0.11,-0.53 0.31,-0.66 0.17,-0.11 0.36,-0.16 0.62,-0.06 0.36,0.14 0.47,0.33 0.89,0.37 0.42,0.04 0.75,-0.27 0.75,-0.27l0 0.54c-0.13,0.08 -0.35,0.23 -0.81,0.21 -0.45,-0.01 -0.87,-0.3 -0.98,-0.36 -0.13,-0.06 -0.22,-0.01 -0.27,0.07 -0.05,0.09 -0.03,0.21 0.07,0.27l0.54 0.31 0.67 -0.05 -0.87 0.51z"/>
 </g>
</svg>
