<?xml version="1.0" encoding="UTF-8"?>
<!DOCTYPE svg PUBLIC "-//W3C//DTD SVG 1.1//EN" "http://www.w3.org/Graphics/SVG/1.1/DTD/svg11.dtd">

<svg width="38" height="38" viewBox="0 0 38 38" fill="none" xmlns="http://www.w3.org/2000/svg">
  <g >
    <path d="M11.6243 15.9672L19.0046 8.58986L26.3879 15.9732L30.6798 11.6782L19.0046 0L7.32935 11.6752L11.6243 15.9672Z" fill="#F3BA2F"/>
    <path d="M0 19.0015L4.29193 14.7065L8.58686 19.0015L4.29193 23.2934L0 19.0015Z" fill="#F3BA2F"/>
    <path d="M11.6243 22.033L19.0046 29.4133L26.3879 22.03L30.6828 26.319L19.0076 37.9972L7.32935 26.328L11.6243 22.033Z" fill="#F3BA2F"/>
    <path d="M29.4131 19.0015L33.705 14.7065L37.9999 18.9985L33.705 23.2964L29.4131 19.0015Z" fill="#F3BA2F"/>
    <path d="M23.3593 18.9986L19.0044 14.6406L15.7839 17.8611L15.4118 18.2302L14.6494 18.9926L19.0044 23.3445L23.3593 19.0016V18.9986Z" fill="#F3BA2F"/>
  </g>
</svg>




