<?xml version="1.0" encoding="UTF-8"?>
<!DOCTYPE svg PUBLIC "-//W3C//DTD SVG 1.1//EN" "http://www.w3.org/Graphics/SVG/1.1/DTD/svg11.dtd">

<svg width="83" height="100" viewBox="0 0 30.75 36.87" fill="none" xmlns="http://www.w3.org/2000/svg">
<path fill="#FFF" d="M24.58 6.42c0.91,-0.88 0.24,-2.93 -1.48,-4.6 -1.72,-1.66 -3.85,-2.3 -4.75,-1.43 -0.91,0.88 -0.25,2.93 1.48,4.6 1.72,1.66 3.85,2.3 4.75,1.43zm-0.89 0.86l-0.47 0.46c-0.91,0.87 -3.04,0.23 -4.76,-1.43 -1.72,-1.67 -2.38,-3.72 -1.48,-4.6l0.51 -0.49c-0.04,1.22 0.61,2.83 1.95,4.12 1.32,1.28 2.98,1.94 4.25,1.94zm-18.74 25.6c0,0.44 -0.37,0.8 -0.82,0.8 -0.46,0 -0.83,-0.36 -0.83,-0.8 0,-0.44 0.37,-0.79 0.83,-0.79 0.41,0 0.76,0.29 0.81,0.68 0.01,0.04 0.01,0.07 0.01,0.11zm-0.82 -11.97l-3.3 0c-0.46,0 -0.83,0.36 -0.83,0.8l0 14.37c0,0.44 0.37,0.79 0.83,0.79l3.3 0c1.36,0 2.47,-1.07 2.47,-2.39l0 -1.6 -1.65 0 1.65 0 0 -0.03 0 -9.54c0,-1.32 -1.11,-2.4 -2.47,-2.4zm21.59 6.76c0,-0.94 -0.79,-1.7 -1.76,-1.7 0.97,0 1.76,-0.77 1.76,-1.71 0,-0.94 -0.79,-1.71 -1.76,-1.71l-7.24 0c1.08,-3.12 1.06,-4.11 1.06,-6.02 0,-1.42 -1.2,-2.56 -2.64,-2.56l-0.53 0c-0.34,0 -0.76,0.26 -0.85,0.65 -0.87,3.28 -2.24,7.05 -5.68,7.82l0 12.34 3.05 0.97c0.9,0.29 1.84,0.45 2.79,0.45l8.27 0c0.98,0 1.77,-0.77 1.77,-1.71 0,-0.94 -0.79,-1.7 -1.77,-1.7l1.77 0c0.97,0 1.76,-0.77 1.76,-1.71 0,-0.94 -0.79,-1.7 -1.76,-1.7 0.97,0 1.76,-0.77 1.76,-1.71zm2.17 -4.62c-0.16,0.03 -0.33,-0.02 -0.46,-0.14 -0.22,-0.2 -0.22,-0.54 -0.01,-0.75 3.04,-3.02 2.97,-7.88 -0.16,-10.81 -0.22,-0.21 -0.22,-0.54 -0.01,-0.75 0.21,-0.21 0.55,-0.22 0.77,-0.01 3.56,3.34 3.64,8.86 0.18,12.31 -0.08,0.09 -0.2,0.14 -0.31,0.15zm-3.67 -3.14c-0.16,0.02 -0.33,-0.02 -0.46,-0.14 -0.21,-0.21 -0.22,-0.54 0,-0.75 2.34,-2.31 2.31,-6.03 -0.07,-8.3 -0.22,-0.2 -0.22,-0.54 -0.01,-0.75 0.21,-0.2 0.56,-0.21 0.77,0 2.82,2.68 2.85,7.07 0.08,9.79 -0.08,0.09 -0.2,0.14 -0.31,0.15z"/>
</svg>




