<?xml version="1.0" encoding="UTF-8"?>
<!DOCTYPE svg PUBLIC "-//W3C//DTD SVG 1.1//EN" "http://www.w3.org/Graphics/SVG/1.1/DTD/svg11.dtd">

<svg width="100" height="78" viewBox="0 0 11.37 8.79" fill="none" xmlns="http://www.w3.org/2000/svg">
<path fill="#FFF" d="M1.29 4.72c0.04,0.03 0.05,0.05 0.05,0.1 0,0.15 -0.01,0.4 0,0.52 0.19,0.05 2.67,2.79 3.29,3.27 0.16,0.12 0.35,0.18 0.54,0 0.19,-0.18 0.13,-0.37 0.01,-0.53 -0.28,-0.4 -1.4,-1.33 -1.48,-1.52 -0.04,-0.12 0.09,-0.25 0.21,-0.14 0.59,0.51 1.23,1.21 1.79,1.78 0.16,0.16 0.36,0.24 0.57,0.08 0.04,-0.03 0.07,-0.07 0.1,-0.11 -0.31,-0.32 -0.55,-0.7 -0.7,-1.12 -0.39,-0.39 -0.78,-0.78 -1.17,-1.17 -0.14,-0.15 0.04,-0.31 0.17,-0.2 0.26,0.23 0.56,0.52 0.86,0.83 -0.02,-0.16 -0.04,-0.33 -0.04,-0.5 0,-0.19 0.02,-0.38 0.06,-0.57 -0.09,-0.08 -0.17,-0.16 -0.25,-0.24 -0.08,-0.08 -0.22,-0.19 -0.12,-0.29 0.11,-0.13 0.22,0.02 0.29,0.09l0.15 0.15c0.08,-0.28 0.19,-0.54 0.34,-0.78 -0.21,-0.21 -0.42,-0.41 -0.63,-0.63 -0.05,-0.05 -0.13,-0.11 -0.15,-0.18 -0.01,-0.06 0,-0.87 0,-1l-0.4 0.01c-0.05,0.04 -0.14,0.14 -0.2,0.19l-0.58 0.58c-0.12,0.12 -0.24,0.25 -0.49,0.28 -0.43,0.05 -0.81,-0.33 -0.76,-0.77 0.03,-0.24 0.16,-0.35 0.29,-0.49l0.77 -0.76c-0.22,-0.02 -0.49,-0.01 -0.71,-0.01 -0.07,0 -0.11,-0.01 -0.15,0.03 -0.44,0.44 -2.16,2.07 -2.37,2.38 0.18,0.22 0.5,0.52 0.71,0.72zm5.89 3.25l0.1 0 0.15 0c0.17,0 0.3,-0.13 0.3,-0.28l0 -0.19 -0.2 0 0.2 0 0 -0.01 0 -1.14c0,-0.16 -0.13,-0.29 -0.3,-0.29l-0.39 0c-0.06,0 -0.1,0.04 -0.1,0.1l0 1.72c0,0.05 0.04,0.09 0.1,0.09l0.14 0zm1.44 -0.08l0.09 0 0.89 0c0.11,0 0.21,-0.09 0.21,-0.2 0,-0.11 -0.1,-0.21 -0.21,-0.21l0.21 0c0.11,0 0.21,-0.09 0.21,-0.2 0,-0.11 -0.1,-0.2 -0.21,-0.2 0.11,0 0.21,-0.1 0.21,-0.21 0,-0.11 -0.1,-0.2 -0.21,-0.2 0.11,0 0.21,-0.1 0.21,-0.21 0,-0.11 -0.1,-0.2 -0.21,-0.2l-0.87 0c0.13,-0.38 0.13,-0.5 0.13,-0.72 0,-0.17 -0.15,-0.31 -0.32,-0.31l-0.06 0c-0.04,0 -0.09,0.03 -0.1,0.08 -0.11,0.39 -0.27,0.84 -0.68,0.93l0 1.48 0.36 0.12c0.11,0.03 0.22,0.05 0.34,0.05l0.01 0zm1.49 -2.69c-0.03,-0.16 -0.11,-0.32 -0.24,-0.45 -0.03,-0.02 -0.07,-0.02 -0.09,0 -0.03,0.03 -0.03,0.07 0,0.09 0.28,0.27 0.29,0.72 0,0.99 -0.02,0.03 -0.02,0.07 0.01,0.09 0.01,0.02 0.03,0.02 0.05,0.02 0.01,0 0.03,-0.01 0.04,-0.02 0.2,-0.19 0.28,-0.46 0.23,-0.71l0 -0.01zm0.37 -0.15c-0.05,-0.08 -0.11,-0.16 -0.19,-0.23 -0.02,-0.02 -0.06,-0.02 -0.09,0.01 -0.02,0.02 -0.02,0.06 0,0.08 0.06,0.06 0.12,0.12 0.16,0.19l-0.25 0.1 0.25 -0.1 0 0.01c0.21,0.34 0.17,0.8 -0.14,1.1 -0.02,0.03 -0.02,0.07 0,0.09 0.02,0.01 0.04,0.02 0.06,0.02 0.01,0 0.03,-0.01 0.04,-0.02 0.34,-0.34 0.39,-0.85 0.16,-1.24l0 -0.01zm-1.31 -0.97c-0.1,-0.13 -0.14,-0.27 -0.14,-0.38l-0.06 0.06c-0.11,0.11 -0.03,0.35 0.18,0.55 0.21,0.2 0.46,0.28 0.57,0.17l0.06 -0.05c-0.16,0 -0.35,-0.08 -0.51,-0.23 -0.04,-0.04 -0.07,-0.08 -0.1,-0.12l0 0zm0.59 -0.25c-0.02,-0.02 -0.04,-0.04 -0.05,-0.06 -0.21,-0.2 -0.47,-0.27 -0.57,-0.17 -0.1,0.09 -0.05,0.28 0.09,0.46l-0.06 0.02 0.06 -0.02 0 0c0.02,0.03 0.05,0.06 0.08,0.09 0.21,0.2 0.46,0.28 0.57,0.17 0.1,-0.09 0.05,-0.29 -0.11,-0.48l-0.01 -0.01zm-1.16 -0.59c0.55,0 1.07,0.16 1.5,0.45l-0.34 0.14 0.34 -0.14 0.03 0.01c0.41,0.27 0.74,0.65 0.96,1.09l-0.61 0.26 0.61 -0.26 0.01 0.03c0.17,0.36 0.27,0.77 0.27,1.19 0,1.54 -1.24,2.78 -2.77,2.78 -0.09,0 -0.18,-0.01 -0.27,-0.01l-0.02 -0.01 0.31 -0.88 -0.31 0.88c-0.44,-0.04 -0.85,-0.19 -1.2,-0.41l-0.05 -0.04 0.12 -0.35 -0.12 0.35c-0.74,-0.49 -1.24,-1.34 -1.24,-2.31 0,-1.53 1.25,-2.77 2.78,-2.77zm-1.07 4.26c0,0.05 -0.04,0.09 -0.1,0.09 -0.05,0 -0.1,-0.04 -0.1,-0.09 0,-0.06 0.05,-0.1 0.1,-0.1 0.05,0 0.09,0.04 0.1,0.08 0,0.01 0,0.01 0,0.02zm-6.15 -1.07c0.19,0.2 0.47,0.15 0.63,-0.09l-0.39 -0.4c-0.03,-0.02 -0.05,-0.04 -0.07,-0.06 -0.02,-0.03 -0.05,-0.05 -0.07,-0.07 -0.1,0.09 -0.35,0.35 -0.1,0.62zm2 1.99c0.17,0.16 0.41,0.13 0.59,-0.11 -0.01,-0.04 -0.48,-0.5 -0.53,-0.53 -0.22,0.15 -0.26,0.44 -0.06,0.64zm-0.72 -0.58c0.24,0.19 0.5,0.02 0.66,-0.19 -0.01,-0.02 -0.5,-0.51 -0.53,-0.53 -0.2,0.21 -0.4,0.46 -0.13,0.72zm0 -0.84c-0.01,-0.03 -0.5,-0.52 -0.53,-0.53 -0.24,0.18 -0.48,0.49 -0.24,0.76 0.25,0.27 0.62,0 0.77,-0.23zm6.84 -3.95c0.01,-0.47 0,-0.93 0,-0.97 -0.7,-0.7 -1.39,-1.39 -2.08,-2.08 -0.11,0.05 -0.81,0.77 -0.86,0.94 -0.08,0.32 0.13,0.48 0.26,0.62 0.43,0.43 0.91,0.9 1.34,1.33l0.04 0.05c0.13,-0.02 0.26,-0.03 0.4,-0.03 0.31,0 0.62,0.05 0.9,0.14zm-9.5 -0.97l0 1.97c0.23,-0.01 0.3,-0.11 0.44,-0.25 0.74,-0.72 1.46,-1.51 2.21,-2.21 0.17,-0.16 0.35,-0.33 0.3,-0.6 -0.03,-0.16 -0.09,-0.22 -0.17,-0.3 -0.06,-0.06 -0.66,-0.67 -0.7,-0.69 -0.69,0.7 -1.38,1.39 -2.08,2.08zm7.94 0.9c-0.66,-0.65 -1.42,-1.38 -1.43,-1.39l-2.18 0c-0.18,0 -0.12,-0.02 -0.22,0.07 -0.3,0.28 -0.59,0.59 -0.88,0.88 -0.19,0.2 -0.34,0.44 -0.11,0.69 0.31,0.33 0.61,0.03 0.83,-0.2l0.59 -0.59c0.18,-0.17 0.11,-0.14 0.43,-0.14 0.22,0 0.44,-0.04 0.47,0.11 0.02,0.08 0,0.7 0,0.87 0,0.15 -0.02,0.19 0.05,0.25 0.19,0.18 0.42,0.41 0.63,0.62 0.43,-0.58 1.08,-1.01 1.82,-1.17z"/>
</svg>




