<?xml version="1.0" encoding="UTF-8"?>
<!DOCTYPE svg PUBLIC "-//W3C//DTD SVG 1.1//EN" "http://www.w3.org/Graphics/SVG/1.1/DTD/svg11.dtd">

<svg width="88" height="110" viewBox="0 0 88 110" fill="none" xmlns="http://www.w3.org/2000/svg">
<path d="M69.7094 19.7472L66.1667 23.1719C63.8189 25.4415 58.2941 23.7806 53.8267 19.4619C49.3592 15.1431 47.6411 9.80246 49.9889 7.53265L53.5318 4.10791" fill="#EAEAEA"/>
<path d="M69.7085 19.7471C72.0563 17.4776 70.3383 12.1371 65.8713 7.81886C61.4044 3.50063 55.88 1.83986 53.5322 4.10944C51.1845 6.37902 52.9024 11.7195 57.3694 16.0377C61.8364 20.356 67.3608 22.0167 69.7085 19.7471Z" fill="white"/>
<path d="M69.6127 50.2134C69.1929 50.2686 68.752 50.1421 68.4267 49.8323C67.869 49.3018 67.862 48.4344 68.411 47.8953C74.5046 41.9118 74.4265 32.2513 68.2371 26.3606C67.6794 25.8299 67.6724 24.9627 68.2214 24.4236C68.7702 23.8848 69.6675 23.8777 70.2251 24.4085C77.5281 31.3589 77.6201 42.7571 70.4306 49.817C70.2017 50.0417 69.9125 50.1739 69.6127 50.2134Z" fill="#E0E0E0"/>
<path d="M78.1535 60.6173C77.7337 60.6726 77.2928 60.546 76.9675 60.2363C76.4097 59.7056 76.4027 58.8383 76.9517 58.2993C84.8957 50.4988 84.7939 37.9051 76.725 30.2255C76.1673 29.6948 76.1603 28.8276 76.7093 28.2885C77.2581 27.7497 78.1554 27.7426 78.713 28.2735C87.8954 37.0127 88.0115 51.3443 78.9714 60.221C78.7423 60.4456 78.4532 60.5778 78.1535 60.6173Z" fill="#E0E0E0"/>
<g filter="url(#filter0_d)">
<path d="M72.6659 74.8957C72.6659 72.4617 70.6059 70.4703 68.0882 70.4703C70.6059 70.4703 72.6659 68.4789 72.6659 66.045C72.6659 63.6111 70.6059 61.6197 68.0882 61.6197H49.3197C52.1119 53.5211 52.0662 50.9398 52.0662 45.9835C52.0662 42.3014 48.9432 39.3455 45.1996 39.3455H43.8263C42.9565 39.3455 41.8578 40.0094 41.6288 41.0271C39.3642 49.5504 35.8236 59.3309 26.8887 61.312V93.331L34.808 95.8716C37.1426 96.6238 39.569 97.0222 42.0409 97.0222H63.5105C66.0387 97.0224 68.0882 95.0408 68.0882 92.597C68.0882 90.1529 66.0387 88.1717 63.5105 88.1717H68.0882C70.6059 88.1717 72.6659 86.1803 72.6659 83.7464C72.6659 81.3124 70.6059 79.321 68.0882 79.321C70.6059 79.321 72.6659 77.3296 72.6659 74.8957Z" fill="white"/>
</g>
<g filter="url(#filter1_d)">
<path d="M15.4443 57.1943H6.28886C5.02373 57.1943 4 58.184 4 59.407V99.235C4 100.458 5.02373 101.448 6.28886 101.448H15.4443C19.2307 101.448 22.3109 98.47 22.3109 94.8096V63.8323C22.3109 60.172 19.2307 57.1943 15.4443 57.1943ZM15.4443 92.597C14.1802 92.597 13.1554 91.6063 13.1554 90.3843C13.1554 89.162 14.1802 88.1716 15.4443 88.1716C16.7084 88.1716 17.7332 89.162 17.7332 90.3843C17.7332 91.6063 16.7084 92.597 15.4443 92.597Z" fill="white"/>
</g>
<defs>
<filter id="filter0_d" x="22.8887" y="39.3455" width="53.7772" height="65.6768" filterUnits="userSpaceOnUse" color-interpolation-filters="sRGB">
<feFlood flood-opacity="0" result="BackgroundImageFix"/>
<feColorMatrix in="SourceAlpha" type="matrix" values="0 0 0 0 0 0 0 0 0 0 0 0 0 0 0 0 0 0 127 0"/>
<feOffset dy="4"/>
<feGaussianBlur stdDeviation="2"/>
<feColorMatrix type="matrix" values="0 0 0 0 0 0 0 0 0 0 0 0 0 0 0 0 0 0 0.25 0"/>
<feBlend mode="normal" in2="BackgroundImageFix" result="effect1_dropShadow"/>
<feBlend mode="normal" in="SourceGraphic" in2="effect1_dropShadow" result="shape"/>
</filter>
<filter id="filter1_d" x="0" y="57.1943" width="26.3109" height="52.2533" filterUnits="userSpaceOnUse" color-interpolation-filters="sRGB">
<feFlood flood-opacity="0" result="BackgroundImageFix"/>
<feColorMatrix in="SourceAlpha" type="matrix" values="0 0 0 0 0 0 0 0 0 0 0 0 0 0 0 0 0 0 127 0"/>
<feOffset dy="4"/>
<feGaussianBlur stdDeviation="2"/>
<feColorMatrix type="matrix" values="0 0 0 0 0 0 0 0 0 0 0 0 0 0 0 0 0 0 0.25 0"/>
<feBlend mode="normal" in2="BackgroundImageFix" result="effect1_dropShadow"/>
<feBlend mode="normal" in="SourceGraphic" in2="effect1_dropShadow" result="shape"/>
</filter>
</defs>
</svg>




