<?xml version="1.0" encoding="UTF-8"?>
<!DOCTYPE svg PUBLIC "-//W3C//DTD SVG 1.1//EN" "http://www.w3.org/Graphics/SVG/1.1/DTD/svg11.dtd">

<svg width="92" height="67" viewBox="0 0 92 67" fill="none" xmlns="http://www.w3.org/2000/svg">
<path d="M91.9506 46.4367C91.7214 40.6792 90.8047 34.2959 89.4296 28.2881C88.0545 22.5306 86.3357 17.1486 84.273 13.0182C76.2517 -2.37679 67.5429 0.00130379 57.1152 3.00521C53.7921 3.88135 50.2398 4.88265 46.573 5.25814H45.4271C41.7602 4.88265 38.2079 3.88135 34.8848 3.00521C24.4571 0.126467 15.7483 -2.37679 7.72697 13.1434C5.66436 17.2738 3.83092 22.6558 2.57043 28.4132C1.19535 34.4211 0.278629 40.8044 0.0494493 46.5618C-0.179731 52.9451 0.393219 57.5762 1.65371 60.8304C2.9142 63.8343 4.74764 65.7117 7.15402 66.4627C9.33123 67.0885 11.8522 66.8382 14.4878 65.5866C18.9568 63.584 24.1133 59.3284 29.1553 54.1968C32.7076 50.4419 39.3538 48.5645 46 48.5645C52.6462 48.5645 59.2924 50.4419 62.8447 54.1968C67.8867 59.3284 73.0432 63.584 77.5122 65.5866C80.1478 66.7131 82.6688 67.0885 84.846 66.4627C87.1378 65.7117 89.0858 63.9595 90.3463 60.7052C91.6068 57.5762 92.1797 52.9451 91.9506 46.4367ZM86.4503 58.953C85.7627 60.7052 84.846 61.7065 83.7001 62.082C82.4396 62.4575 80.8354 62.2072 79.0019 61.4562C74.9913 59.7039 70.2931 55.8239 65.7095 51.0677C61.3551 46.3115 53.6775 43.9334 46 43.9334C38.3225 43.9334 30.645 46.3115 26.176 50.8174C21.4778 55.5736 16.7796 59.5788 12.8835 61.2059C11.0501 61.9569 9.44582 62.3324 8.18533 61.8317C7.03943 61.4562 6.12272 60.4549 5.43518 58.7026C4.51846 56.3245 4.0601 52.4445 4.28928 46.687C4.51846 41.305 5.32059 35.172 6.69566 29.4145C7.95615 24.0325 9.56041 19.026 11.5084 15.2712C17.8109 2.88005 25.1446 4.88265 33.8535 7.38591C37.4058 8.38721 41.0726 9.38851 45.0833 9.764C45.1979 9.764 45.1979 9.764 45.3125 9.764H46.573C46.6876 9.764 46.6876 9.764 46.8021 9.764C50.9274 9.38851 54.5943 8.38721 58.1465 7.38591C66.8554 5.00781 74.1891 2.88005 80.4916 15.2712C82.4396 19.026 84.0439 23.9074 85.3044 29.4145C86.5648 35.172 87.4816 41.1799 87.7107 46.687C87.9399 52.4445 87.4816 56.3245 86.4503 58.953Z" fill="white"/>
<path d="M35.4578 22.0304C34.3119 20.904 32.9369 20.0278 31.3326 19.9027C31.218 18.2756 30.5305 16.6484 29.4992 15.522L29.3846 15.3968C28.1241 14.02 26.5198 13.269 24.6864 13.269C22.8529 13.269 21.1341 14.1452 19.9882 15.3968C18.9569 16.5233 18.1547 18.1504 18.0402 19.9027C16.4359 20.0278 15.0608 20.7788 13.9149 21.9053L13.8003 22.0304C12.5398 23.4072 11.8523 25.1595 11.8523 27.1621C11.8523 29.1647 12.6544 31.0421 13.8003 32.2938C14.9462 33.5454 16.3213 34.2964 18.0402 34.4215C18.1547 36.1738 18.8423 37.8009 19.9882 38.9274C21.2487 40.3042 22.8529 41.0552 24.6864 41.0552C26.5198 41.0552 28.2387 40.179 29.3846 38.9274C30.4159 37.6758 31.218 36.1738 31.3326 34.4215C32.9369 34.2964 34.4265 33.5454 35.4578 32.2938C36.7183 30.917 37.4059 29.1647 37.4059 27.1621C37.4059 25.1595 36.6038 23.2821 35.4578 22.0304ZM32.5931 29.0395C32.1347 29.5402 31.5618 29.7905 30.8742 29.7905H29.27C28.1241 29.7905 27.0928 30.7918 27.0928 32.1686V33.7957C27.0928 34.5467 26.8636 35.1725 26.4052 35.6732C25.9469 36.1738 25.3739 36.4241 24.6864 36.4241C23.9988 36.4241 23.4259 36.1738 22.9675 35.6732C22.5092 35.1725 22.28 34.5467 22.28 33.7957V32.0434C22.28 30.7918 21.3633 29.6654 20.1028 29.6654H18.4985C17.811 29.6654 17.238 29.415 16.7797 28.9144C16.4359 28.5389 16.0921 27.9131 16.0921 27.1621C16.0921 26.4111 16.3213 25.7853 16.7797 25.2847C16.7797 25.2847 16.7797 25.2847 16.8943 25.1595C17.3526 24.784 17.9256 24.5337 18.4985 24.5337H20.1028C21.2487 24.5337 22.28 23.5324 22.28 22.1556V20.4033C22.28 19.6523 22.5092 19.0265 22.9675 18.5259C23.4259 18.0252 23.9988 17.7749 24.6864 17.7749C25.3739 17.7749 25.9469 18.0252 26.4052 18.5259C26.4052 18.5259 26.4052 18.5259 26.5198 18.651C26.8636 19.1517 27.0928 19.7775 27.0928 20.4033V22.1556C27.0928 23.4072 28.0095 24.5337 29.27 24.5337H30.8742C31.5618 24.5337 32.1347 24.784 32.5931 25.2847C33.0515 25.7853 33.2806 26.4111 33.2806 27.1621C33.2806 27.9131 33.0515 28.5389 32.5931 29.0395Z" fill="#F2994A"/>
<path d="M65.9389 22.6562C68.1539 22.6562 69.9495 20.6949 69.9495 18.2755C69.9495 15.8561 68.1539 13.8948 65.9389 13.8948C63.7239 13.8948 61.9282 15.8561 61.9282 18.2755C61.9282 20.6949 63.7239 22.6562 65.9389 22.6562Z" fill="#F2994A"/>
<path d="M65.9389 40.4294C68.1539 40.4294 69.9495 38.4681 69.9495 36.0487C69.9495 33.6293 68.1539 31.668 65.9389 31.668C63.7239 31.668 61.9282 33.6293 61.9282 36.0487C61.9282 38.4681 63.7239 40.4294 65.9389 40.4294Z" fill="#F2994A"/>
<path d="M57.8026 31.5424C60.0177 31.5424 61.8133 29.5811 61.8133 27.1617C61.8133 24.7423 60.0177 22.781 57.8026 22.781C55.5876 22.781 53.792 24.7423 53.792 27.1617C53.792 29.5811 55.5876 31.5424 57.8026 31.5424Z" fill="#F2994A"/>
<path d="M74.0746 31.5424C76.2896 31.5424 78.0853 29.5811 78.0853 27.1617C78.0853 24.7423 76.2896 22.781 74.0746 22.781C71.8596 22.781 70.064 24.7423 70.064 27.1617C70.064 29.5811 71.8596 31.5424 74.0746 31.5424Z" fill="#F2994A"/>
</svg>




