<?xml version="1.0" encoding="UTF-8"?>
<!DOCTYPE svg PUBLIC "-//W3C//DTD SVG 1.1//EN" "http://www.w3.org/Graphics/SVG/1.1/DTD/svg11.dtd">


<svg xmlns="http://www.w3.org/2000/svg" xml:space="preserve" width="109" height="100" version="1.1" style="shape-rendering:geometricPrecision; text-rendering:geometricPrecision; image-rendering:optimizeQuality; fill-rule:evenodd; clip-rule:evenodd"
viewBox="0 0 7.14 6.55"
 xmlns:xlink="http://www.w3.org/1999/xlink"
 > 
  <path  fill="#FFF" d="M0.97 3.54c0.03,0.03 0.04,0.04 0.04,0.08 0,0.11 -0.01,0.3 0,0.39 0.14,0.04 2.01,2.1 2.47,2.46 0.12,0.09 0.26,0.13 0.41,0 0.14,-0.13 0.09,-0.28 0,-0.4 -0.21,-0.3 -1.05,-1 -1.11,-1.14 -0.03,-0.09 0.07,-0.19 0.16,-0.11 0.44,0.39 0.92,0.91 1.34,1.34 0.12,0.12 0.27,0.18 0.43,0.06 0.14,-0.1 0.15,-0.31 0.03,-0.44 -0.45,-0.46 -0.91,-0.91 -1.36,-1.36 -0.11,-0.11 0.03,-0.24 0.13,-0.15 0.47,0.4 1.07,1.07 1.51,1.52 0.12,0.1 0.29,0.11 0.41,0 0.12,-0.11 0.13,-0.31 0.01,-0.42 -0.48,-0.49 -0.97,-0.99 -1.46,-1.47 -0.06,-0.05 -0.16,-0.13 -0.09,-0.21 0.08,-0.1 0.17,0.01 0.22,0.06l1.18 1.18c0.13,0.12 0.33,0.16 0.45,0 0.1,-0.13 0.09,-0.3 -0.01,-0.4 -0.24,-0.24 -0.48,-0.48 -0.72,-0.72l-0.5 -0.5c-0.17,-0.17 -0.34,-0.33 -0.5,-0.5 -0.04,-0.04 -0.11,-0.09 -0.12,-0.14 -0.01,-0.04 0,-0.65 0,-0.74l-0.3 0c-0.04,0.03 -0.1,0.1 -0.15,0.15l-0.43 0.43c-0.09,0.09 -0.18,0.19 -0.37,0.21 -0.33,0.04 -0.61,-0.24 -0.57,-0.58 0.02,-0.18 0.12,-0.26 0.21,-0.36l0.58 -0.58c-0.16,-0.01 -0.37,0 -0.53,0 -0.05,0 -0.09,-0.01 -0.12,0.02 -0.33,0.33 -1.62,1.55 -1.78,1.78 0.14,0.17 0.38,0.39 0.54,0.54zm0.07 1.29c0.14,0.15 0.35,0.11 0.47,-0.06l-0.29 -0.3c-0.02,-0.02 -0.04,-0.04 -0.05,-0.05 -0.02,-0.02 -0.04,-0.04 -0.06,-0.06 -0.07,0.07 -0.26,0.27 -0.07,0.47zm1.5 1.49c0.13,0.13 0.31,0.1 0.44,-0.08 -0.01,-0.03 -0.36,-0.37 -0.39,-0.4 -0.17,0.12 -0.2,0.33 -0.05,0.48zm-0.54 -0.43c0.18,0.14 0.38,0.01 0.49,-0.14 0,-0.01 -0.37,-0.39 -0.4,-0.4 -0.14,0.16 -0.29,0.34 -0.09,0.54zm0 -0.63c-0.01,-0.02 -0.37,-0.39 -0.4,-0.4 -0.18,0.13 -0.36,0.37 -0.18,0.57 0.19,0.21 0.47,0 0.58,-0.17zm5.13 -2.22c0.01,-0.01 0.02,-1.42 0,-1.48 -0.52,-0.52 -1.04,-1.04 -1.56,-1.56 -0.08,0.04 -0.6,0.58 -0.64,0.71 -0.06,0.24 0.1,0.36 0.2,0.46 0.31,0.33 0.67,0.68 1,1l0.55 0.56c0.14,0.14 0.25,0.29 0.45,0.31zm-7.13 -1.48l0 1.48c0.17,-0.01 0.22,-0.08 0.33,-0.18 0.56,-0.54 1.1,-1.14 1.66,-1.66 0.13,-0.12 0.27,-0.25 0.23,-0.46 -0.02,-0.11 -0.07,-0.16 -0.13,-0.22 -0.04,-0.05 -0.49,-0.51 -0.52,-0.52 -0.53,0.52 -1.05,1.05 -1.57,1.56zm5.68 2.65c0.04,-0.01 0.47,-0.45 0.5,-0.51 0.04,-0.1 0.07,-0.24 0.09,-0.26 -0.01,-0.08 0.04,-0.11 0.07,-0.14 0.08,-0.08 0.28,-0.27 0.33,-0.33 -0.04,-0.09 -1.76,-1.77 -1.78,-1.77l-1.64 0c-0.13,0 -0.09,-0.02 -0.16,0.05 -0.22,0.21 -0.45,0.44 -0.66,0.66 -0.15,0.15 -0.26,0.33 -0.08,0.52 0.23,0.24 0.45,0.02 0.62,-0.16l0.44 -0.43c0.14,-0.14 0.08,-0.11 0.33,-0.11 0.16,0 0.33,-0.03 0.35,0.08 0.01,0.06 0,0.53 0,0.66 0,0.11 -0.02,0.13 0.04,0.18 0.2,0.2 0.45,0.46 0.65,0.66 0.15,0.15 0.3,0.29 0.44,0.44 0.11,0.11 0.39,0.36 0.46,0.46z"/>
</svg>





