<?xml version="1.0" encoding="UTF-8"?>
<!DOCTYPE svg PUBLIC "-//W3C//DTD SVG 1.1//EN" "http://www.w3.org/Graphics/SVG/1.1/DTD/svg11.dtd">

<svg width="92" height="134" viewBox="0 0 92 134" fill="none" xmlns="http://www.w3.org/2000/svg">
<path d="M38.5083 1.06555C17.8121 1.06555 1.03467 18.3926 1.03467 39.7669V106.797V123.61C1.03467 128.76 5.06126 132.935 10.0286 132.935C14.9955 132.935 19.0221 128.76 19.0221 123.61V110.962C19.0221 105.812 23.0486 101.637 28.016 101.637C32.9828 101.637 37.0094 105.812 37.0094 110.962V123.61C37.0094 128.76 41.036 132.935 46.0029 132.935C50.9697 132.935 54.9963 128.76 54.9963 123.61V110.962C54.9963 105.812 59.0229 101.637 63.9903 101.637C68.9571 101.637 72.9842 105.812 72.9842 110.962V123.61C72.9842 128.76 77.0108 132.935 81.9776 132.935C86.9445 132.935 90.9716 128.76 90.9716 123.61V106.797V39.7669C90.9716 18.3926 74.1942 1.06555 53.498 1.06555H38.5083Z" fill="#7E9FEF"/>
<path d="M53.4972 1.06555H48.5005C69.1967 1.06555 85.9741 18.3926 85.9741 39.7669V106.797V123.61C85.9741 127.86 83.2286 131.439 79.4785 132.562C80.2723 132.8 81.1088 132.934 81.9769 132.934C86.9437 132.934 90.9708 128.759 90.9708 123.61V106.797V39.7669C90.9713 18.3926 74.1934 1.06555 53.4972 1.06555Z" fill="#D6D1CF"/>
<path d="M38.5073 0.833618H43.5041C22.8074 0.833618 6.02996 18.1607 6.02996 39.535V106.565V123.378C6.02996 127.628 8.77539 131.207 12.5255 132.331C11.7313 132.569 10.8952 132.703 10.0272 132.703C5.0598 132.703 1.0332 128.528 1.0332 123.378V106.565V39.535C1.0332 18.1607 17.8111 0.833618 38.5073 0.833618Z" fill="white"/>
<path d="M38.0944 47.2549C37.9077 47.4477 37.6502 47.5668 37.365 47.5668L16.1666 47.5664C15.597 47.5664 15.1353 47.0896 15.1353 46.5012C15.1353 45.9129 15.597 45.4361 16.1666 45.4361L37.3653 45.4361C37.935 45.4361 38.3967 45.9129 38.3967 46.5012C38.3964 46.7954 38.2811 47.0621 38.0944 47.2549Z" fill="white"/>
<path d="M76.5674 47.2545C76.3807 47.4474 76.1232 47.5664 75.838 47.5664L54.6393 47.5664C54.0696 47.5664 53.6079 47.0896 53.6079 46.5012C53.6079 45.9129 54.0696 45.436 54.6393 45.436L75.838 45.436C76.4077 45.436 76.8694 45.9129 76.8694 46.5012C76.8694 46.795 76.7541 47.0617 76.5674 47.2545Z" fill="white"/>
<path d="M81.9771 134C76.4491 134 71.9516 129.339 71.9516 123.61V110.962C71.9516 106.407 68.3799 102.702 63.9892 102.702C59.5985 102.702 56.0268 106.407 56.0268 110.962V123.61C56.0268 129.339 51.5293 134 46.0013 134C40.4733 134 35.9758 129.339 35.9758 123.61V110.962C35.9758 106.407 32.4041 102.702 28.0134 102.702C23.6227 102.702 20.051 106.407 20.051 110.962V123.61C20.051 129.339 15.5535 134 10.0255 134C4.49749 134 0 129.339 0 123.61V39.7667C0 17.839 17.273 0 38.5051 0H53.4949C74.7269 0 92 17.8395 92 39.7667V123.61C92.0026 129.339 87.5051 134 81.9771 134ZM63.9897 100.572C69.5177 100.572 74.0152 105.232 74.0152 110.962V123.61C74.0152 128.164 77.5869 131.869 81.9776 131.869C86.3683 131.869 89.94 128.164 89.94 123.61V39.7667C89.94 19.014 73.5923 2.13066 53.498 2.13066H38.5082C18.4139 2.13066 2.06616 19.014 2.06616 39.7667V123.61C2.06616 128.164 5.63785 131.869 10.0286 131.869C14.4193 131.869 17.991 128.164 17.991 123.61V110.962C17.991 105.233 22.4885 100.572 28.0165 100.572C33.5445 100.572 38.042 105.232 38.042 110.962V123.61C38.042 128.164 41.6137 131.869 46.0044 131.869C50.3951 131.869 53.9668 128.164 53.9668 123.61V110.962C53.9647 105.233 58.4617 100.572 63.9897 100.572Z" fill="#0049D8"/>
<path d="M29 77C29 77 38.9862 67.1044 46.3148 67.0007C53.4173 66.9003 63 77 63 77" stroke="white" stroke-width="3" stroke-linecap="round"/>
</svg>






