<?xml version="1.0" encoding="UTF-8"?>
<!DOCTYPE svg PUBLIC "-//W3C//DTD SVG 1.1//EN" "http://www.w3.org/Graphics/SVG/1.1/DTD/svg11.dtd">

<svg width="92" height="134" viewBox="0 0 92 134" fill="none" xmlns="http://www.w3.org/2000/svg">
<path d="M38.5087 1.06555C17.8126 1.06555 1.03516 18.3926 1.03516 39.7669V106.797V123.61C1.03516 128.76 5.06175 132.935 10.0291 132.935C14.9959 132.935 19.0225 128.76 19.0225 123.61V110.962C19.0225 105.812 23.0491 101.637 28.0165 101.637C32.9833 101.637 37.0099 105.812 37.0099 110.962V123.61C37.0099 128.76 41.0365 132.935 46.0034 132.935C50.9702 132.935 54.9968 128.76 54.9968 123.61V110.962C54.9968 105.812 59.0234 101.637 63.9907 101.637C68.9576 101.637 72.9847 105.812 72.9847 110.962V123.61C72.9847 128.76 77.0113 132.935 81.9781 132.935C86.945 132.935 90.9721 128.76 90.9721 123.61V106.797V39.7669C90.9721 18.3926 74.1947 1.06555 53.4985 1.06555H38.5087Z" fill="#7E9FEF"/>
<path d="M53.4977 1.06555H48.501C69.1972 1.06555 85.9746 18.3926 85.9746 39.7669V106.797V123.609C85.9746 127.86 83.2291 131.439 79.479 132.562C80.2728 132.8 81.1093 132.934 81.9774 132.934C86.9442 132.934 90.9713 128.759 90.9713 123.609V106.797V39.7669C90.9718 18.3926 74.1939 1.06555 53.4977 1.06555Z" fill="#D6D1CF"/>
<path d="M38.5073 0.833618H43.5041C22.8074 0.833618 6.02996 18.1607 6.02996 39.535V106.565V123.378C6.02996 127.628 8.77539 131.207 12.5255 132.331C11.7312 132.569 10.8952 132.703 10.0272 132.703C5.0598 132.703 1.0332 128.528 1.0332 123.378V106.565V39.535C1.0332 18.1607 17.8111 0.833618 38.5073 0.833618Z" fill="white"/>
<path d="M81.9771 134C76.4491 134 71.9516 129.339 71.9516 123.61V110.962C71.9516 106.407 68.3799 102.702 63.9892 102.702C59.5985 102.702 56.0268 106.407 56.0268 110.962V123.61C56.0268 129.339 51.5293 134 46.0013 134C40.4733 134 35.9758 129.339 35.9758 123.61V110.962C35.9758 106.407 32.4041 102.702 28.0134 102.702C23.6227 102.702 20.051 106.407 20.051 110.962V123.61C20.051 129.339 15.5535 134 10.0255 134C4.49749 134 0 129.339 0 123.61V39.7667C0 17.839 17.273 0 38.5051 0H53.4949C74.7269 0 92 17.8395 92 39.7667V123.61C92.0026 129.339 87.5051 134 81.9771 134ZM63.9897 100.572C69.5177 100.572 74.0152 105.232 74.0152 110.962V123.61C74.0152 128.164 77.5869 131.869 81.9776 131.869C86.3683 131.869 89.94 128.164 89.94 123.61V39.7667C89.94 19.014 73.5923 2.13066 53.498 2.13066H38.5082C18.4139 2.13066 2.06616 19.014 2.06616 39.7667V123.61C2.06616 128.164 5.63785 131.869 10.0286 131.869C14.4193 131.869 17.991 128.164 17.991 123.61V110.962C17.991 105.233 22.4885 100.572 28.0165 100.572C33.5445 100.572 38.042 105.232 38.042 110.962V123.61C38.042 128.164 41.6137 131.869 46.0044 131.869C50.3951 131.869 53.9668 128.164 53.9668 123.61V110.962C53.9647 105.233 58.4617 100.572 63.9897 100.572Z" fill="#0049D8"/>
<path d="M15 48.2942L15.5202 44.1455C15.8747 41.3185 17.3901 38.7667 19.7027 37.1025V37.1025C23.3707 34.4631 28.3346 34.5378 31.9215 37.2865L32.0335 37.3723C34.0043 38.8826 35.3722 41.046 35.8915 43.4741L37 48.6571" stroke="white" stroke-width="3" stroke-linecap="round"/>
<path d="M54.2275 47.6371L54.7477 43.4884C55.1022 40.6614 56.6176 38.1096 58.9303 36.4454V36.4454C62.5983 33.806 67.5622 33.8807 71.149 36.6294L71.261 36.7152C73.2319 38.2255 74.5998 40.3889 75.1191 42.817L76.2275 48" stroke="white" stroke-width="3" stroke-linecap="round"/>
<path d="M63 68.1428C63 68.1428 53.1054 74.9284 45.8439 74.9995C38.8066 75.0684 29.3117 68.1428 29.3117 68.1428" stroke="white" stroke-width="3" stroke-linecap="round"/>
</svg>





