<?xml version="1.0" encoding="UTF-8"?>
<!DOCTYPE svg PUBLIC "-//W3C//DTD SVG 1.1//EN" "http://www.w3.org/Graphics/SVG/1.1/DTD/svg11.dtd">

<svg width="42" height="33" viewBox="0 0 42 33" fill="none" xmlns="http://www.w3.org/2000/svg">
<path d="M26.6666 30.25V27.0833C26.6666 25.4036 25.9993 23.7927 24.8116 22.605C23.6239 21.4173 22.013 20.75 20.3332 20.75H7.66658C5.98688 20.75 4.37597 21.4173 3.18824 22.605C2.00051 23.7927 1.33325 25.4036 1.33325 27.0833V30.25" stroke="#466AC5" stroke-width="2" stroke-linecap="round" stroke-linejoin="round"/>
<path d="M14.0001 14.4167C17.4979 14.4167 20.3334 11.5811 20.3334 8.08333C20.3334 4.58553 17.4979 1.75 14.0001 1.75C10.5023 1.75 7.66675 4.58553 7.66675 8.08333C7.66675 11.5811 10.5023 14.4167 14.0001 14.4167Z" stroke="#466AC5" stroke-width="2" stroke-linecap="round" stroke-linejoin="round"/>
<path d="M32.75 27.625L36.5 31.375L40.25 27.625" stroke="#466AC5" stroke-width="2" stroke-linecap="round" stroke-linejoin="round"/>
</svg>




